<svg xmlns="http://www.w3.org/2000/svg" viewBox="0 0 136.55 136.55" data-guides="{&quot;vertical&quot;:[],&quot;horizontal&quot;:[]}"><defs/><path fill="transparent" fill-opacity="1" stroke="#7f2ccb" stroke-opacity="1" stroke-width="15" id="tSvg15c49febb00" title="Ellipse 2" d="M68.28 30.78C88.9907 30.78 105.78 47.5693 105.78 68.28C105.78 88.9907 88.9907 105.78 68.28 105.78C47.5693 105.78 30.78 88.9907 30.78 68.28C30.78 47.5693 47.5693 30.78 68.28 30.78Z" style="transform-origin: 68.28px 68.28px;"/><path fill="transparent" stroke="#20fc8f" fill-opacity="1" stroke-width="10" stroke-opacity="1" title="Ellipse 1" d="M68.28 15.7801C97.275 15.7801 120.78 39.2851 120.78 68.2801C120.78 97.275 97.275 120.7801 68.28 120.7801C39.285 120.7801 15.78 97.275 15.78 68.2801C15.78 39.2851 39.285 15.7801 68.28 15.7801Z" id="tSvg153c1125f89" style="transform-origin: 72.28px 67.28px;"/><text font-size="64px" font-weight="700" font-style="normal" text-anchor="middle" letter-spacing="0px" word-spacing="normal" data-lh="1" data-tt="capitalize" stroke="none" stroke-width="0" id="tSvg761c844e69" data-ff="Tahoma" x="42.28" y="43.28" width="56" height="50" title="Curiosity about life" fill="#000000" fill-opacity="1" stroke-opacity="1" data-valign="middle" data-fs="normal" data-text="C" style="font-family: Tahoma; text-decoration: none; transform-origin: 70.28px 68.28px;"><tspan y="90.68" x="70.28">C</tspan></text><text font-size="34px" font-weight="700" font-style="normal" text-anchor="middle" letter-spacing="0px" word-spacing="normal" data-lh="1" data-tt="capitalize" stroke="none" stroke-width="0" id="tSvg1709b17984a" data-ff="Tahoma" x="23.78" y="54.78" width="54" height="27" title="Curiosity about life" fill="#000000" fill-opacity="1" stroke-opacity="1" data-valign="middle" data-fs="normal" data-text="H" style="font-family: Tahoma; text-decoration: none; transform-origin: 50.78px 68.28px;"><tspan y="80.18" x="50.78">H</tspan></text><text font-size="34.00px" font-weight="700" font-style="normal" text-anchor="middle" letter-spacing="0px" word-spacing="normal" data-lh="1" data-tt="lowercase" stroke="none" stroke-width="0" id="tSvg1450c887e83" data-ff="Tahoma" x="51.78" y="51.78" width="54" height="27" title="Curiosity about life" fill="#000000" fill-opacity="1" stroke-opacity="1" data-valign="middle" data-fs="normal" data-text="a" style="font-family: Tahoma; text-decoration: none; transform-origin: 78.78px 65.28px;"><tspan y="77.18" x="78.78">a</tspan></text><path fill="transparent" stroke="#000000" fill-opacity="1" stroke-width="5" stroke-opacity="1" title="Rectangle 2" d="M64.0377 6.7617C66.3808 4.4186 70.1798 4.4186 72.523 6.7617L129.7986 64.0374C132.1418 66.3805 132.1418 70.1795 129.7986 72.5226L72.523 129.7983C70.1798 132.1414 66.3808 132.1414 64.0377 129.7983L6.7621 72.5226C4.4189 70.1795 4.4189 66.3805 6.7621 64.0374Z" rx="58.5" ry="58.5" id="tSvg10b85df000c" style=""/></svg>